<?xml version="1.0" encoding="iso-8859-1"?>
<!-- Uploaded to: SVG Repo, www.svgrepo.com, Generator: SVG Repo Mixer Tools -->
<svg height="800px" width="800px" version="1.1" id="Layer_1" xmlns="http://www.w3.org/2000/svg" xmlns:xlink="http://www.w3.org/1999/xlink" 
	 viewBox="0 0 512 512" xml:space="preserve">
<polygon style="fill:#72C6EF;" points="345.6,480 324.8,416 187.2,416 166.4,480 "/>
<path style="fill:#FFFFFF;" d="M240,96h32V48c0-9.6-6.4-16-16-16s-16,6.4-16,16V96z"/>
<g>
	<polygon style="fill:#FAA85F;" points="336,128 336,156.8 416,145.6 416,128 	"/>
	<polygon style="fill:#FAA85F;" points="96,128 96,145.6 176,156.8 176,128 	"/>
	<polygon style="fill:#FAA85F;" points="208,128 208,262.4 304,310.4 304,128 	"/>
</g>
<polygon style="fill:#FFFFFF;" points="224,305.6 224,384 288,384 288,337.6 "/>
<path style="fill:#00384E;" d="M480,96H304V48c0-27.2-20.8-48-48-48s-48,20.8-48,48v48H32v32h32v46.4l112,16v92.8l16,8V384h-27.2
	l-43.2,128h268.8l-43.2-128H320v-30.4l16,8V190.4l112-16V128h32V96z M240,48c0-9.6,6.4-16,16-16s16,6.4,16,16v48h-32V48z M96,145.6
	V128h80v28.8L96,145.6z M324.8,416l20.8,64H166.4l20.8-64H324.8z M288,384h-64v-78.4l64,32V384z M304,310.4l-96-48V128h96V310.4z
	 M416,145.6l-80,11.2V128h80V145.6z"/>
</svg>