<?xml version="1.0" standalone="no"?>
<!DOCTYPE svg PUBLIC "-//W3C//DTD SVG 20010904//EN"
 "http://www.w3.org/TR/2001/REC-SVG-20010904/DTD/svg10.dtd">
<svg version="1.0" xmlns="http://www.w3.org/2000/svg"
 width="700.000000pt" height="700.000000pt" viewBox="0 0 700.000000 700.000000"
 preserveAspectRatio="xMidYMid meet">
<metadata>
Created by potrace 1.14, written by Peter Selinger 2001-2017
</metadata>
<g transform="translate(0.000000,700.000000) scale(0.100000,-0.100000)"
fill="#000000" stroke="none">
<path d="M3352 6985 c-68 -15 -211 -80 -252 -114 -135 -115 -218 -249 -246
-398 -4 -21 -8 -203 -9 -405 -1 -202 -4 -371 -8 -374 -3 -4 -544 -7 -1202 -6
-657 0 -1195 -3 -1196 -7 -4 -32 -3 -415 1 -422 3 -5 102 -10 220 -11 l215 -3
0 -313 c0 -271 2 -313 15 -316 13 -4 59 -11 130 -21 14 -2 45 -6 70 -10 25 -4
56 -8 70 -10 14 -2 75 -11 135 -20 61 -8 124 -17 140 -19 61 -8 130 -18 145
-21 8 -1 40 -6 70 -10 30 -3 66 -8 80 -10 89 -14 233 -35 275 -40 28 -4 57 -8
65 -10 8 -3 44 -7 80 -11 36 -3 68 -8 71 -10 3 -2 34 -6 67 -10 34 -3 74 -9
89 -13 l28 -7 1 -633 0 -633 110 -55 109 -55 0 -632 0 -631 -186 -3 -187 -2
-67 -203 c-36 -111 -70 -211 -75 -222 -5 -11 -61 -177 -126 -370 -64 -192
-163 -486 -220 -652 l-102 -303 1838 0 1838 0 -70 208 c-205 602 -482 1425
-499 1479 l-20 63 -187 2 -187 3 0 198 c0 109 2 200 6 203 4 2 51 -18 105 -45
54 -27 101 -48 104 -46 3 2 5 527 4 1168 l0 1164 85 11 c48 7 97 14 111 16 22
4 130 20 215 32 17 2 76 11 131 19 56 8 123 17 150 20 27 3 61 8 77 10 62 11
84 14 127 20 47 6 65 9 140 20 25 4 56 8 70 10 14 2 43 6 65 10 22 3 54 7 70
9 51 7 129 18 145 21 8 1 43 6 78 10 34 4 63 10 63 13 1 4 2 147 3 317 l1 310
220 3 220 2 -2 208 c-1 114 -2 212 -2 218 -1 9 -316 11 -1201 10 -792 -1
-1201 2 -1203 9 -2 6 -3 163 -2 350 1 394 -3 440 -50 558 -41 101 -97 176
-190 253 -70 58 -144 94 -255 125 -59 17 -239 19 -308 4z"/>
</g>
</svg>
