<?xml version="1.0" standalone="no"?>
<!DOCTYPE svg PUBLIC "-//W3C//DTD SVG 20010904//EN"
 "http://www.w3.org/TR/2001/REC-SVG-20010904/DTD/svg10.dtd">
<svg version="1.0" xmlns="http://www.w3.org/2000/svg"
 width="1006.000000pt" height="1006.000000pt" viewBox="0 0 1006.000000 1006.000000"
 preserveAspectRatio="xMidYMid meet">
<metadata>
Created by potrace 1.14, written by Peter Selinger 2001-2017
</metadata>
<g transform="translate(0.000000,1006.000000) scale(0.100000,-0.100000)"
fill="#000000" stroke="none">
<path d="M3049 8596 c-2 -2 -38 -6 -79 -10 -102 -9 -147 -14 -189 -21 -20 -3
-51 -8 -70 -11 -18 -3 -43 -8 -55 -10 -11 -2 -37 -7 -56 -10 -19 -3 -43 -7
-52 -10 -9 -3 -25 -7 -35 -9 -10 -2 -61 -15 -113 -30 -52 -14 -102 -27 -110
-29 -8 -3 -65 -22 -126 -44 -199 -71 -405 -168 -558 -261 -36 -23 -69 -41 -72
-41 -2 0 -10 -5 -17 -10 -7 -6 -28 -21 -47 -33 -105 -69 -244 -174 -310 -234
-14 -13 -38 -35 -55 -49 -91 -80 -217 -210 -290 -298 -22 -27 -45 -54 -50 -60
-57 -62 -285 -400 -285 -423 0 -6 -4 -13 -9 -15 -15 -5 -146 -276 -191 -393
-23 -60 -46 -119 -50 -130 -8 -18 -32 -92 -35 -105 -6 -24 -28 -100 -35 -120
-5 -14 -12 -36 -15 -50 -2 -14 -12 -56 -21 -95 -8 -38 -17 -79 -20 -90 -15
-74 -25 -125 -30 -159 -3 -21 -8 -48 -10 -60 -2 -11 -7 -45 -10 -75 -3 -30 -8
-64 -10 -75 -2 -12 -6 -41 -9 -66 -11 -114 -17 -170 -23 -240 -10 -128 -14
-3505 -3 -3531 19 -48 24 -64 23 -71 -1 -5 2 -8 8 -8 5 0 10 -9 10 -20 0 -11
5 -20 10 -20 6 0 10 -6 10 -14 0 -18 118 -136 136 -136 8 0 14 -3 14 -8 0 -9
104 -51 137 -55 12 -2 24 -5 27 -8 7 -7 1062 -2 1075 5 6 4 11 4 11 -1 0 -10
8205 -11 8245 0 90 23 197 97 265 182 24 31 57 109 69 164 8 38 11 913 11
3160 0 3428 5 3156 -63 3257 -74 111 -227 177 -347 151 -14 -3 -35 -8 -47 -11
-40 -9 -156 -80 -201 -123 -7 -7 -17 -13 -22 -13 -5 0 -15 -6 -22 -13 -7 -7
-134 -100 -283 -206 -148 -106 -281 -201 -295 -211 -14 -11 -63 -46 -110 -79
-47 -33 -89 -64 -95 -68 -5 -5 -32 -24 -60 -43 -27 -18 -52 -36 -55 -40 -3 -3
-16 -13 -30 -22 -35 -24 -94 -66 -270 -193 -83 -60 -159 -114 -168 -120 -29
-17 -97 -70 -100 -77 -2 -5 -8 -8 -14 -8 -6 0 -23 -10 -38 -22 -15 -13 -68
-51 -117 -86 -180 -130 -332 -237 -353 -252 -12 -8 -32 -22 -44 -31 -11 -9
-91 -66 -176 -127 -85 -61 -159 -115 -165 -119 -5 -5 -32 -24 -60 -43 -27 -19
-51 -37 -53 -42 -2 -4 -8 -8 -13 -8 -6 0 -15 -5 -22 -10 -7 -6 -43 -33 -82
-61 -38 -27 -77 -55 -85 -62 -57 -46 -113 -75 -137 -71 -59 11 -56 7 -133 219
-18 50 -37 101 -43 115 -6 14 -11 27 -12 30 -6 24 -108 230 -156 316 -75 135
-210 340 -258 391 -12 12 -21 26 -21 32 0 5 -3 11 -7 13 -5 2 -21 19 -37 38
-103 125 -258 286 -370 384 -32 28 -64 56 -70 61 -6 6 -29 23 -51 39 -22 17
-44 36 -48 43 -4 7 -12 13 -17 13 -6 0 -21 9 -34 21 -36 32 -196 139 -207 139
-5 0 -9 3 -9 8 0 4 -9 12 -20 17 -10 6 -59 33 -107 61 -145 84 -507 249 -567
258 -6 1 -15 4 -21 8 -5 3 -30 12 -55 19 -25 7 -49 14 -55 15 -23 7 -131 36
-145 40 -30 8 -196 44 -225 49 -118 21 -171 29 -295 41 -61 7 -516 15 -521 10z
m449 -1280 c24 -3 60 -8 80 -11 21 -4 51 -8 69 -11 52 -7 172 -33 243 -53 25
-7 47 -13 50 -13 7 0 220 -76 245 -87 239 -108 449 -236 584 -356 109 -96 301
-300 301 -319 0 -4 8 -16 18 -27 11 -10 25 -32 33 -47 8 -15 17 -29 21 -32 8
-6 56 -93 93 -170 29 -59 81 -194 90 -232 2 -13 11 -50 20 -83 14 -58 21 -102
31 -194 l4 -45 -108 110 c-142 143 -180 176 -340 296 -191 143 -445 280 -672
363 -41 15 -91 33 -110 40 -19 7 -37 13 -40 13 -3 1 -12 3 -20 6 -34 12 -155
41 -235 56 -27 6 -61 12 -75 15 -112 23 -318 42 -505 46 -63 1 -294 -16 -355
-26 -14 -2 -45 -7 -70 -10 -60 -8 -181 -33 -255 -52 -33 -8 -64 -16 -70 -17
-5 -1 -15 -5 -21 -8 -6 -4 -24 -10 -40 -13 -33 -7 -42 -9 -64 -18 -8 -3 -37
-13 -65 -23 -27 -10 -56 -22 -62 -27 -7 -5 -13 -7 -13 -4 0 15 -382 -169 -430
-207 -8 -7 -32 -21 -53 -31 -21 -11 -45 -28 -54 -37 -9 -10 -20 -18 -25 -18
-5 0 -15 -6 -22 -12 -8 -7 -24 -20 -36 -28 -12 -8 -30 -22 -40 -30 -10 -8 -39
-33 -66 -55 -132 -108 -333 -324 -462 -495 -17 -24 -33 -37 -33 -29 -4 47 -5
205 -1 212 2 5 6 32 8 60 4 75 31 208 51 257 3 8 5 19 4 24 -1 4 2 13 7 20 5
6 12 23 16 38 12 53 141 308 159 316 4 2 7 10 7 18 0 8 3 14 8 14 4 0 16 16
26 35 11 19 23 35 28 35 4 0 8 7 8 15 0 8 4 15 8 15 4 0 24 22 45 48 30 40 79
91 206 213 66 64 261 202 361 255 30 16 60 35 68 42 7 7 17 10 22 7 5 -3 10
-1 12 3 6 15 269 124 331 137 9 2 21 7 27 10 10 6 149 44 190 52 14 2 44 8 68
14 23 5 59 12 80 14 20 3 46 8 57 10 11 2 56 7 100 11 44 3 82 8 84 10 5 4
429 -4 479 -10z"/>
</g>
</svg>
