<?xml version="1.0" standalone="no"?>
<!DOCTYPE svg PUBLIC "-//W3C//DTD SVG 20010904//EN"
 "http://www.w3.org/TR/2001/REC-SVG-20010904/DTD/svg10.dtd">
<svg version="1.0" xmlns="http://www.w3.org/2000/svg"
 width="900.000000pt" height="900.000000pt" viewBox="0 0 900.000000 900.000000"
 preserveAspectRatio="xMidYMid meet">
<metadata>
Created by potrace 1.14, written by Peter Selinger 2001-2017
</metadata>
<g transform="translate(0.000000,900.000000) scale(0.100000,-0.100000)"
fill="#000000" stroke="none">
<path d="M8887 7979 c-59 -43 -112 -79 -117 -79 -4 0 -10 -4 -12 -8 -2 -7
-154 -118 -386 -283 -62 -44 -476 -340 -497 -355 -58 -43 -484 -348 -505 -362
-14 -9 -29 -20 -35 -25 -5 -4 -35 -25 -65 -47 -30 -22 -59 -43 -65 -48 -5 -4
-39 -28 -75 -52 -36 -24 -69 -48 -75 -52 -50 -39 -79 -60 -135 -99 -36 -25
-172 -123 -303 -217 -131 -95 -242 -172 -247 -172 -4 0 -10 -4 -12 -8 -1 -4
-25 -23 -53 -42 -27 -19 -55 -39 -61 -45 -6 -5 -20 -16 -30 -23 -83 -55 -290
-207 -292 -214 -2 -4 -8 -8 -14 -8 -6 0 -30 -16 -53 -35 l-43 -35 -10 28 c-6
15 -21 59 -33 97 -22 72 -60 177 -83 230 -7 17 -18 41 -24 55 -42 101 -144
295 -200 380 -127 197 -252 351 -412 510 -168 168 -321 293 -494 406 -45 29
-85 57 -91 61 -28 22 -363 193 -391 200 -5 1 -36 14 -69 27 -33 14 -68 26 -77
26 -9 0 -19 4 -22 9 -3 5 -30 15 -58 21 -29 7 -57 15 -63 19 -5 3 -14 6 -20 7
-5 1 -39 10 -75 19 -65 17 -84 22 -118 29 -19 4 -92 18 -107 21 -5 1 -12 3
-15 4 -3 1 -27 4 -55 6 -27 3 -63 7 -80 10 -114 18 -447 25 -610 11 -159 -13
-201 -18 -325 -41 -41 -8 -88 -17 -105 -20 -16 -2 -60 -13 -98 -24 -37 -11
-71 -20 -75 -20 -16 -2 -173 -55 -257 -88 -95 -36 -292 -132 -385 -186 -30
-18 -70 -41 -89 -52 -28 -17 -216 -148 -246 -172 -117 -94 -314 -286 -395
-383 -25 -30 -47 -57 -50 -60 -34 -31 -230 -321 -230 -340 0 -5 -4 -10 -10
-10 -5 0 -10 -5 -10 -11 0 -6 -9 -24 -21 -40 -11 -16 -17 -29 -12 -29 4 0 3
-4 -2 -8 -6 -4 -24 -34 -40 -67 -17 -33 -32 -62 -35 -65 -3 -3 -6 -10 -7 -15
-1 -6 -15 -39 -31 -75 -16 -36 -35 -83 -42 -105 -7 -22 -19 -52 -26 -67 -8
-15 -15 -35 -17 -45 -2 -10 -15 -56 -30 -103 -30 -98 -73 -269 -81 -320 -3
-19 -8 -46 -11 -60 -2 -13 -7 -42 -10 -65 -3 -22 -8 -47 -10 -55 -4 -13 -10
-57 -19 -140 -2 -14 -7 -56 -10 -95 -4 -38 -10 -88 -13 -110 -3 -22 -8 -961
-10 -2088 l-4 -2047 1088 6 c598 3 1455 7 1903 10 448 3 824 4 835 4 27 -2
-70 -2 1015 4 1127 7 2965 16 3672 19 l488 2 0 3538 c0 1945 -1 3537 -2 3536
-2 0 -52 -36 -111 -80z m-5672 -512 c11 -3 49 -8 85 -12 36 -4 68 -9 71 -11 4
-2 22 -6 40 -8 44 -6 204 -42 204 -46 0 -1 7 -3 15 -5 46 -9 186 -57 284 -98
57 -23 261 -129 277 -143 8 -8 19 -14 24 -14 9 0 99 -59 146 -95 14 -11 36
-27 49 -35 12 -8 28 -19 34 -25 6 -5 34 -28 61 -50 121 -96 296 -271 376 -375
18 -25 36 -47 40 -50 3 -3 18 -23 34 -45 17 -22 32 -42 36 -45 14 -13 160
-254 196 -325 83 -161 162 -361 207 -525 14 -52 18 -69 31 -137 3 -16 8 -36
11 -45 6 -21 13 -54 20 -98 3 -19 7 -48 9 -65 3 -16 7 -52 10 -80 3 -27 7 -61
10 -75 9 -43 14 -275 7 -286 -11 -15 -60 -44 -74 -44 -7 0 -60 93 -118 206
-58 113 -110 208 -117 211 -12 5 -123 174 -123 187 0 4 -5 12 -10 19 -6 7 -36
49 -68 94 -93 133 -153 203 -282 333 -52 52 -117 113 -143 135 -27 22 -54 45
-61 52 -17 15 -225 163 -230 163 -2 0 -33 17 -67 38 -60 36 -252 133 -274 139
-5 1 -56 20 -111 41 -159 62 -347 109 -509 128 -27 3 -53 8 -56 10 -10 6 -215
17 -314 16 -140 0 -326 -15 -405 -32 -25 -5 -58 -12 -75 -15 -16 -3 -39 -8
-50 -10 -78 -15 -274 -71 -330 -95 -214 -90 -277 -120 -370 -172 -241 -135
-478 -336 -650 -553 -22 -27 -42 -52 -45 -55 -17 -16 -60 -80 -60 -88 0 -6 -7
-12 -15 -16 -8 -3 -15 -12 -15 -21 0 -8 -4 -15 -10 -15 -5 0 -10 -7 -10 -15 0
-8 -4 -15 -10 -15 -5 0 -12 -11 -16 -25 -3 -14 -9 -25 -13 -25 -4 0 -22 -28
-40 -62 -18 -35 -36 -70 -40 -78 -61 -113 -156 -357 -175 -450 -3 -14 -13 -50
-21 -80 -27 -97 -68 -347 -81 -495 -11 -125 -13 -148 -18 -153 -7 -7 -8 -3 -8
211 0 98 2 180 5 184 4 3 4 10 0 16 -11 18 -3 490 11 622 2 22 7 74 11 115 11
109 18 165 30 220 3 14 8 43 11 65 11 72 12 80 13 83 1 1 1 4 2 7 0 2 16 62
35 132 19 71 36 136 39 145 2 9 9 26 15 37 6 12 9 21 6 21 -3 0 4 21 15 48 11
26 24 56 28 67 19 49 145 298 167 330 13 20 24 38 24 40 0 7 92 139 126 182
19 23 34 46 34 52 0 6 7 11 15 11 8 0 15 5 15 11 0 20 163 187 270 277 41 34
84 70 95 80 11 9 41 31 67 47 27 17 48 33 48 38 0 4 5 7 11 7 6 0 30 13 53 29
171 118 534 264 771 311 33 7 67 14 75 17 8 3 31 7 50 9 19 2 49 5 65 8 17 3
64 8 105 11 41 4 76 8 78 9 4 5 426 -2 447 -7z"/>
</g>
</svg>
