<?xml version="1.0" encoding="UTF-8"?>
<svg id="Layer_1" data-name="Layer 1" xmlns="http://www.w3.org/2000/svg" viewBox="0 0 450.03 356.03">
  <defs>
    <style>
      .cls-1 {
        fill: #000;
      }

      .cls-1, .cls-2, .cls-3 {
        stroke-width: 0px;
      }

      .cls-2 {
        fill: #e1e900;
      }

      .cls-3 {
        fill: #00df29;
      }
    </style>
  </defs>
  <path class="cls-2" d="M23.93,232.41c-.28-5.67-.47-14.18.21-24.45,1.32-19.93,2.88-47.98,20.39-75.01,10.23-15.79,22.17-26.37,31.14-32.99,9.57-6.52,30.1-18.64,58.95-21.52,12.95-1.29,41.42-2.11,71.52,13.99,27.4,14.65,42.27,35.9,49.06,47.6,2.73,4.7,3.81,5.97,4.08,5.83.23-.12-1.47-3.4-1.43-3.42.07-.04,6.55,12.6,13.27,25.77-7.74,8.84-24.98,26.07-52.85,36-22.77,8.11-42.69,7.8-53.96,6.78-4.12-3.26-5.03-5.19-7.08-6.51-8.88-5.7-19.47-6.26-31.98-4.21-18.71,3.06-55.25,13.89-101.32,32.15Z"/>
  <path class="cls-3" d="M294.85,186.39c-3.47-12.71-7.04-34.09,2.32-54.95,4.48-10,12.82-21.85,58.21-49.02,17.42-10.43,41.23-23.67,70.74-37.16.23,57.66.46,115.32.69,172.98-9.02-8.58-22.16-21.33-43.74-26.47-42.9-10.21-74.31-8.22-88.21-5.38Z"/>
  <g>
    <path class="cls-1" d="M0,258.6C0,239.72,4.32,224.7,12.93,213.55c10.35-13.44,24.57-23.81,42.67-31.11,18.11-7.29,38.37-10.94,60.78-10.94,21.13,0,40.63,3.72,58.52,11.16,17.89,7.44,32.01,17.59,42.35,30.46,8.19-15.45,22.42-28.46,42.68-39.04,20.27-10.58,43.11-15.87,68.54-15.87,22.42,0,43,3.79,61.75,11.37,18.75,7.58,33.52,17.66,44.29,30.25,5.17,6.29,9.05,13.3,11.64,21.02,2.59,7.72,3.88,18.02,3.88,30.89v101.99c-150.01.77-300.02,1.53-450.03,2.3v-97.43Z"/>
    <path class="cls-1" d="M290.33,114.44c-8.62-31.46-26.19-57.55-52.7-78.24-26.51-20.69-56.58-31.03-90.2-31.03-27.16,0-51.95,6.46-74.36,19.4-22.41,12.93-40.1,31.03-53.03,54.31C6.7,102.6,0,133.2,0,170.7v169.4s450.03,0,450.03,0V0s-159.7,114.44-159.7,114.44ZM23.93,170.06c0-30.6,4.75-55.39,14.22-74.36,10.35-21.12,25.23-37.51,44.62-49.14,19.4-11.65,40.95-17.46,64.66-17.46,29.73,0,56.04,9.48,78.88,28.45,4.44,3.69,17.47,14.94,28.66,33.32,17.81,29.27,19.99,58.55,19.98,73.5-83.67,46.94-167.35,93.88-251.02,140.81v-135.13ZM426.11,322h-130.62v-162.29s-.64-20.04-.64-20.04l131.26-94.41v276.74Z"/>
  </g>
</svg>